HIERARCHY
ROOT Hips
{
	OFFSET -3.958830 18.904000 13.208200
	CHANNELS 6 Xposition Yposition Zposition Zrotation Yrotation Xrotation 
	JOINT LHipJoint
	{
		OFFSET 0.000000 0.000000 0.000000
		CHANNELS 3 Zrotation Yrotation Xrotation
		JOINT LeftUpLeg
		{
			OFFSET 1.800000 -1.400000 0.085000
			CHANNELS 3 Zrotation Yrotation Xrotation
			JOINT LeftLeg
			{
				OFFSET 2.215000 -6.000000 0.000000
				CHANNELS 3 Zrotation Yrotation Xrotation
				JOINT LeftFoot
				{
					OFFSET 2.500000 -6.900000 0.000000
					CHANNELS 3 Zrotation Yrotation Xrotation
					JOINT LeftToeBase
					{
						OFFSET 0.200000 -0.500000 1.950000
						CHANNELS 3 Zrotation Yrotation Xrotation
						End Site
						{
							OFFSET 0.000000 0.000000 0.000000
						}
					}
				}
			}
		}
	}
	JOINT RHipJoint
	{
		OFFSET 0.000000 0.000000 0.000000
		CHANNELS 3 Zrotation Yrotation Xrotation
		JOINT RightUpLeg
		{
			OFFSET -1.800000 -1.400000 0.085000
			CHANNELS 3 Zrotation Yrotation Xrotation
			JOINT RightLeg
			{
				OFFSET -2.215000 -6.000000 0.000000
				CHANNELS 3 Zrotation Yrotation Xrotation
				JOINT RightFoot
				{
					OFFSET -2.500000 -6.900000 0.000000
					CHANNELS 3 Zrotation Yrotation Xrotation
					JOINT RightToeBase
					{
						OFFSET -0.200000 -0.500000 1.950000
						CHANNELS 3 Zrotation Yrotation Xrotation
						End Site
						{
							OFFSET 0.000000 0.000000 0.000000
						}
					}
				}
			}
		}
	}
	JOINT LowerBack
	{
		OFFSET 0.000000 0.000000 0.000000
		CHANNELS 3 Zrotation Yrotation Xrotation
		JOINT Spine
		{
			OFFSET -0.087000 1.940000 -0.288900
			CHANNELS 3 Zrotation Yrotation Xrotation
			JOINT Spine1
			{
				OFFSET 0.000000 1.950000 0.060000
				CHANNELS 3 Zrotation Yrotation Xrotation
				JOINT Neck
				{
					OFFSET 0.000000 0.000000 0.000000
					CHANNELS 3 Zrotation Yrotation Xrotation
					JOINT Neck1
					{
						OFFSET 0.000000 1.600000 0.340000
						CHANNELS 3 Zrotation Yrotation Xrotation
						JOINT Head
						{
							OFFSET 0.000000 1.667000 -0.240000
							CHANNELS 3 Zrotation Yrotation Xrotation
							End Site
							{
								OFFSET 0.000000 0.000000 0.000000
							}
						}
					}
				}
				JOINT LeftShoulder
				{
					OFFSET 0.000000 0.000000 0.000000
					CHANNELS 3 Zrotation Yrotation Xrotation
					JOINT LeftArm
					{
						OFFSET 2.700000 1.550000 -0.730000
						CHANNELS 3 Zrotation Yrotation Xrotation
						JOINT LeftForeArm
						{
							OFFSET 5.450000 0.000000 0.000000
							CHANNELS 3 Zrotation Yrotation Xrotation
							JOINT LeftHand
							{
								OFFSET 3.450000 0.000000 0.000000
								CHANNELS 3 Zrotation Yrotation Xrotation
								JOINT LeftHandIndex1
								{
									OFFSET 0.750000 0.000000 0.000000
									CHANNELS 3 Zrotation Yrotation Xrotation
									End Site
									{
										OFFSET 0.000000 0.000000 0.000000
									}
								}
							}
						}
					}
				}
				JOINT RightShoulder
				{
					OFFSET 0.000000 0.000000 0.000000
					CHANNELS 3 Zrotation Yrotation Xrotation
					JOINT RightArm
					{
						OFFSET -2.700000 1.550000 -0.730000
						CHANNELS 3 Zrotation Yrotation Xrotation
						JOINT RightForeArm
						{
							OFFSET -5.450000 0.000000 0.000000
							CHANNELS 3 Zrotation Yrotation Xrotation
							JOINT RightHand
							{
								OFFSET -3.450000 0.000000 0.000000
								CHANNELS 3 Zrotation Yrotation Xrotation
								JOINT RightHandIndex1
								{
									OFFSET -0.750000 0.000000 0.000000
									CHANNELS 3 Zrotation Yrotation Xrotation
									End Site
									{
										OFFSET 0.000000 0.000000 0.000000
									}
								}
							}
						}
					}
				}
			}
		}
	}
}
MOTION
Frames: 6
Frame Time: 0.016667
0.614020 17.556440 -2.573190 -7.121585 0.594223 -1.871405 -14.817390 12.559379 1.587735 4.996140 -0.888942 -9.782637 -0.692211 5.597506 21.181136 -0.771954 4.764141 3.179805 -0.155760 -0.456320 -0.320470 18.950593 -9.199410 5.305710 -6.013365 13.221691 -47.763296 10.270757 -22.256241 72.070089 -2.106334 -12.946723 0.389386 -0.116850 0.853100 0.047520 -5.070885 -1.461798 -7.929602 24.689884 -8.511676 15.650117 -12.162363 -4.258655 9.047137 2.655751 -6.894716 -8.776728 -15.026779 5.594753 35.577057 -2.189410 0.628290 -2.349820 -9.097178 4.250877 2.433570 -40.880797 1.599905 -7.804097 -124.491088 -80.882080 109.067767 -3.985223 2.006110 0.506500 0.401160 -0.436820 0.178860 3.280020 -1.858651 4.957957 36.969396 -4.300700 -8.226481 50.814592 54.429106 21.458932 1.665196 -1.690962 -0.576410 0.624550 0.495570 -0.128820 
0.661800 17.463940 -2.617660 -8.001619 0.114739 -2.586738 -14.808898 12.461167 1.453269 5.593958 -1.012950 -9.642436 -0.181229 5.773067 23.345569 -0.736414 4.977131 3.063571 -0.137040 -0.441630 -0.271160 18.995260 -8.987768 5.605605 -7.757428 13.686707 -51.094510 11.988281 -25.189403 74.858965 -2.367302 -13.830211 0.144380 -0.123270 0.778860 0.041730 -5.136800 -1.449696 -8.026268 26.830809 -10.370917 17.637082 -13.487337 -5.203588 8.732034 2.955303 -7.467184 -9.215445 -16.015660 6.615578 35.526124 -2.516390 1.221390 -4.080060 -8.861802 3.631354 2.629919 -38.243699 2.857700 -5.904943 -97.503283 -84.010998 79.793097 -4.745382 0.330948 0.548070 0.343200 -0.390790 0.143770 2.516244 -0.966851 5.349825 36.302547 -3.972750 -8.203798 53.402967 56.351645 23.601206 1.701569 -1.685506 -0.559760 0.604950 0.488920 -0.151470 
0.708930 17.346780 -2.655390 -8.569004 -0.723198 -3.556242 -14.832532 12.439016 1.368201 5.908321 -1.091425 -9.332622 0.456323 5.916657 25.583252 -0.692860 5.226179 2.948028 -0.098110 -0.407490 -0.211240 18.995818 -8.780089 5.863455 -9.249388 14.163748 -53.720848 12.815767 -27.489617 77.878120 -2.620549 -14.618540 -0.062974 -0.119520 0.708760 0.045740 -5.091835 -1.594127 -8.148851 27.750339 -12.040195 20.177515 -14.208675 -6.056657 8.778967 3.505780 -7.824771 -9.811350 -16.690985 7.391873 35.278537 -2.967090 1.643670 -6.223790 -10.107695 2.523346 3.674016 -35.353323 4.955108 -4.363590 -72.473229 -87.138232 56.379105 -4.390397 2.373907 0.599860 0.284440 -0.333050 0.127730 2.785822 0.363865 5.455539 34.833816 -3.437043 -8.321749 55.214149 59.432524 26.022222 1.740669 -1.666417 -0.542160 0.592940 0.466200 -0.169900 
0.750750 17.219960 -2.702840 -8.692034 -1.501805 -5.266901 -14.877324 12.500134 1.351413 5.548200 -1.254540 -8.926023 1.550670 5.964564 28.728528 -0.615251 5.605208 2.785718 -0.084200 -0.413600 -0.169450 18.959093 -8.584990 6.046043 -10.758188 14.235802 -55.351012 13.473171 -29.571764 80.572462 -2.839019 -15.305831 -0.244714 -0.138730 0.643660 0.060860 -4.963857 -1.922999 -8.282564 27.284277 -13.632999 24.228852 -14.205195 -7.092154 7.780661 3.947686 -8.148873 -10.189052 -17.480625 8.230339 35.361441 -3.477700 2.012600 -7.935090 -11.336156 0.852356 3.655970 -33.184207 7.684195 -7.632494 -52.007542 -83.522907 36.851808 -3.950649 3.134103 0.655130 0.227350 -0.280570 0.106300 3.244782 2.122251 5.907474 33.515363 -3.115501 -8.625629 56.261785 62.762027 28.231057 1.797108 -1.628239 -0.527220 0.567250 0.461560 -0.189490 
0.781870 17.094910 -2.756950 -8.812824 -2.556764 -7.584620 -14.937770 12.626271 1.394720 5.653151 -1.484833 -8.480578 2.168606 6.348178 32.730717 -0.471763 6.167163 2.548154 -0.054670 -0.374760 -0.125220 18.883948 -8.432124 6.134423 -11.438280 14.494225 -55.524546 13.557243 -30.886812 82.939163 -3.025367 -15.788233 -0.358468 -0.149560 0.548720 0.066540 -4.756146 -2.326978 -8.425624 26.118940 -14.855729 29.689688 -13.791781 -7.780947 6.430915 4.568663 -8.260072 -10.569224 -17.850513 8.609289 35.459614 -4.632960 2.447960 -10.495920 -13.058392 -1.026296 3.525882 -31.158755 9.424934 -9.687342 -37.541134 -79.801478 23.234165 -3.776540 3.168407 0.702830 0.157320 -0.207670 0.089130 3.805588 4.170508 6.529366 33.128755 -3.227490 -9.553110 55.792687 66.748380 29.804581 1.854314 -1.579636 -0.489350 0.534300 0.435350 -0.201630 
0.803700 16.964130 -2.791130 -8.728364 -3.873552 -9.306218 -15.009860 12.693776 1.496135 5.727937 -1.982533 -8.907666 2.220750 7.080856 37.548249 -0.294385 6.952915 2.270398 -0.036610 -0.343420 -0.096720 18.807623 -8.251541 6.179472 -11.806742 14.866219 -55.596234 13.229994 -31.740793 85.187754 -3.175745 -16.193114 -0.429932 -0.148630 0.521020 0.065170 -4.537814 -2.722275 -8.565295 24.564095 -15.407643 34.324914 -13.050275 -8.139938 4.708855 5.051206 -8.198690 -10.461957 -17.539055 8.841967 34.960688 -5.848920 2.933030 -12.131170 -15.439550 -2.236282 3.166063 -29.354213 10.604380 -10.592532 -29.484478 -75.814086 15.972425 -3.703970 3.112556 0.725870 0.133360 -0.165780 0.100030 5.219466 5.511609 6.701436 32.377840 -3.116632 -10.110050 54.395754 69.590988 30.393890 1.887889 -1.532648 -0.480690 0.546310 0.405970 -0.199190 
